<svg xmlns="http://www.w3.org/2000/svg">
  <symbol id="double-dots" viewBox="0 0 60 24">
    <circle cx="18" cy="12" r="8" fill="black" />
    <circle cx="42" cy="12" r="8" fill="black" />
  </symbol>


  <symbol id="whatsapp-icon" viewBox="0 0 32 32">
    <path fill-rule="evenodd" clip-rule="evenodd"
      d="M16 31C23.732 31 30 24.732 30 17C30 9.26801 23.732 3 16 3C8.26801 3 2 9.26801 2 17C2 19.5109 2.661 21.8674 3.81847 23.905L2 31L9.31486 29.3038C11.3014 30.3854 13.5789 31 16 31ZM16 28.8462C22.5425 28.8462 27.8462 23.5425 27.8462 17C27.8462 10.4576 22.5425 5.15385 16 5.15385C9.45755 5.15385 4.15385 10.4576 4.15385 17C4.15385 19.5261 4.9445 21.8675 6.29184 23.7902L5.23077 27.7692L9.27993 26.7569C11.1894 28.0746 13.5046 28.8462 16 28.8462Z"
      fill="#BFC8D0" />

    <path
      d="M28 16C28 22.6274 22.6274 28 16 28C13.4722 28 11.1269 27.2184 9.19266 25.8837L5.09091 26.9091L6.16576 22.8784C4.80092 20.9307 4 18.5589 4 16C4 9.37258 9.37258 4 16 4C22.6274 4 28 9.37258 28 16Z"
      fill="url(#paint0_linear)" />

    <path fill-rule="evenodd" clip-rule="evenodd"
      d="M16 30C23.732 30 30 23.732 30 16C30 8.26801 23.732 2 16 2C8.26801 2 2 8.26801 2 16C2 18.5109 2.661 20.8674 3.81847 22.905L2 30L9.31486 28.3038C11.3014 29.3854 13.5789 30 16 30ZM16 27.8462C22.5425 27.8462 27.8462 22.5425 27.8462 16C27.8462 9.45755 22.5425 4.15385 16 4.15385C9.45755 4.15385 4.15385 9.45755 4.15385 16C4.15385 18.5261 4.9445 20.8675 6.29184 22.7902L5.23077 26.7692L9.27993 25.7569C11.1894 27.0746 13.5046 27.8462 16 27.8462Z"
      fill="white" />

    <path
      d="M12.5 9.49989C12.1672 8.83131 11.6565 8.8905 11.1407 8.8905C10.2188 8.8905 8.78125 9.99478 8.78125 12.05C8.78125 13.7343 9.52345 15.578 12.0244 18.3361C14.438 20.9979 17.6094 22.3748 20.2422 22.3279C22.875 22.2811 23.4167 20.0154 23.4167 19.2503C23.4167 18.9112 23.2062 18.742 23.0613 18.696C22.1641 18.2654 20.5093 17.4631 20.1328 17.3124C19.7563 17.1617 19.5597 17.3656 19.4375 17.4765C19.0961 17.8018 18.4193 18.7608 18.1875 18.9765C17.9558 19.1922 17.6103 19.083 17.4665 19.0015C16.9374 18.7892 15.5029 18.1511 14.3595 17.0426C12.9453 15.6718 12.8623 15.2001 12.5959 14.7803C12.3828 14.4444 12.5392 14.2384 12.6172 14.1483C12.9219 13.7968 13.3426 13.254 13.5313 12.9843C13.7199 12.7145 13.5702 12.305 13.4803 12.05C13.0938 10.953 12.7663 10.0347 12.5 9.49989Z"
      fill="white" />

    <defs>
      <linearGradient id="paint0_linear" x1="26.5" y1="7" x2="4" y2="28" gradientUnits="userSpaceOnUse">
        <stop stop-color="#5BD066" />
        <stop offset="1" stop-color="#27B43E" />
      </linearGradient>
    </defs>
  </symbol>

  <symbol id="hamburger" viewBox="0 0 21 14">
    <path d="M0 14V11.6667H21V14H0ZM0 8.16667V5.83333H21V8.16667H0ZM0 2.33333V0H21V2.33333H0Z" fill="#1D1B20" />
  </symbol>

  <symbol id="cross" viewBox="0 0 17 17">
    <g clip-path="url(#clip0_4259_325)">
      <rect y="14.8491" width="21" height="2.3" transform="rotate(-45 0 14.8491)" fill="black" />
      <rect x="1.62646" width="21" height="2.3" transform="rotate(45 1.62646 0)" fill="black" />
    </g>
    <defs>
      <clipPath id="clip0_4259_325">
        <rect width="16.4757" height="16.4757" fill="white" />
      </clipPath>
    </defs>
  </symbol>

  <symbol id="chevron-arrow-right" viewBox="0 0 32 32">
    <path
      d="M11.1 30.4c-1.2 0-2.3-.4-3.2-1.3-1.8-1.8-1.8-4.6 0-6.4l6.7-6.7-6.7-6.7c-1.8-1.8-1.8-4.6 0-6.4s4.6-1.8 6.4 0l9.9 9.9c.9.9 1.3 2 1.3 3.2s-.5 2.3-1.3 3.2l-9.9 9.9c-.9.9-2.1 1.3-3.2 1.3z" />
  </symbol>

  <symbol id="visit-link" viewBox="0 0 25 25">
    <path
      d="M9.19028 13.8082C8.75114 14.2473 8.75114 14.9593 9.19028 15.3984C9.62943 15.8376 10.3414 15.8376 10.7806 15.3984L9.98542 14.6033L9.19028 13.8082ZM24.5887 1.12451C24.5887 0.503473 24.0852 2.19345e-05 23.4642 2.19345e-05L13.3438 2.20537e-05C12.7228 2.20537e-05 12.2193 0.503473 12.2193 1.12451C12.2193 1.74555 12.7228 2.249 13.3438 2.249L22.3397 2.249V11.2449C22.3397 11.866 22.8432 12.3694 23.4642 12.3694C24.0852 12.3694 24.5887 11.866 24.5887 11.2449V1.12451ZM17.7467 22.8215L16.9961 21.9842L17.7467 22.8215ZM1.39545 22.2422L0.404703 22.774L1.39545 22.2422ZM9.98542 14.6033L10.7806 15.3984L24.2593 1.91965L23.4642 1.12451L22.6691 0.329377L9.19028 13.8082L9.98542 14.6033ZM12.7182 5.80669V4.6822H6.1331V5.80669V6.93118H12.7182V5.80669ZM1.12793 10.0759H0.0034399V20.4271H1.12793H2.25242V10.0759H1.12793ZM5.72892 23.6143V24.7388H14.3529V23.6143V22.4898H5.72892V23.6143ZM18.5518 19.6192H19.6763V11.8671H18.5518H17.4273V19.6192H18.5518ZM17.7467 22.8215L18.4973 23.6588C19.1883 23.0394 19.4689 22.2587 19.5862 21.5503C19.6975 20.8781 19.6763 20.1507 19.6763 19.6192H18.5518H17.4273C17.4273 20.2607 17.4402 20.743 17.3674 21.1829C17.3005 21.5867 17.1786 21.8206 16.9961 21.9842L17.7467 22.8215ZM14.3529 23.6143V24.7388C14.9231 24.7388 15.6466 24.7356 16.3496 24.6156C17.0547 24.4953 17.8475 24.2413 18.4973 23.6588L17.7467 22.8215L16.9961 21.9842C16.7854 22.1731 16.4592 22.3154 15.9713 22.3987C15.4815 22.4823 14.9383 22.4898 14.3529 22.4898V23.6143ZM1.39545 22.2422L0.404703 22.774C1.00048 23.8838 2.07636 24.3436 3.01675 24.5453C3.95014 24.7455 4.97385 24.7388 5.72892 24.7388V23.6143V22.4898C4.91736 22.4898 4.14484 22.4872 3.48841 22.3464C2.83898 22.2071 2.53144 21.9808 2.38619 21.7103L1.39545 22.2422ZM1.12793 20.4271H0.0034399C0.0034399 20.9503 -0.0625432 21.9037 0.404703 22.774L1.39545 22.2422L2.38619 21.7103C2.24828 21.4534 2.25242 21.1833 2.25242 20.4271H1.12793ZM1.87287 6.85985L1.06493 6.07773C0.446374 6.7167 0.195155 7.48228 0.088215 8.1744C-0.0144014 8.83855 0.0034399 9.54641 0.0034399 10.0759H1.12793H2.25242C2.25242 9.45187 2.24156 8.96611 2.31082 8.51782C2.37576 8.09751 2.49701 7.83183 2.68081 7.64196L1.87287 6.85985ZM6.1331 5.80669V4.6822C5.4141 4.6822 4.50506 4.67537 3.64154 4.82482C2.76753 4.97608 1.81151 5.3065 1.06493 6.07773L1.87287 6.85985L2.68081 7.64196C2.96792 7.34537 3.39891 7.14922 4.02506 7.04085C4.66169 6.93067 5.36591 6.93118 6.1331 6.93118V5.80669Z"
      fill="black" />
  </symbol>
</svg>